<svg width="18" height="24" viewBox="0 0 18 24" fill="none" xmlns="http://www.w3.org/2000/svg">
<rect x="5" y="8" width="8" height="1" rx="0.5" fill="#252525"/>
<path d="M8.5 16.5C8.5 16.7761 8.72386 17 9 17C9.27614 17 9.5 16.7761 9.5 16.5H8.5ZM9.35355 11.1464C9.15829 10.9512 8.84171 10.9512 8.64645 11.1464L5.46447 14.3284C5.2692 14.5237 5.2692 14.8403 5.46447 15.0355C5.65973 15.2308 5.97631 15.2308 6.17157 15.0355L9 12.2071L11.8284 15.0355C12.0237 15.2308 12.3403 15.2308 12.5355 15.0355C12.7308 14.8403 12.7308 14.5237 12.5355 14.3284L9.35355 11.1464ZM9.5 16.5V11.5H8.5V16.5H9.5Z" fill="#252525"/>
</svg>
