<svg width="18" height="24" viewBox="0 0 18 24" fill="none" xmlns="http://www.w3.org/2000/svg">
<path d="M6.91113 15H5.5V9.56055L3.81543 10.083V8.93555L6.75977 7.88086H6.91113V15ZM13.2107 12.0605C13.2107 13.0436 13.0073 13.7956 12.6004 14.3164C12.1935 14.8372 11.5978 15.0977 10.8133 15.0977C10.0385 15.0977 9.44609 14.8421 9.03594 14.3311C8.62578 13.82 8.41582 13.0876 8.40605 12.1338V10.8252C8.40605 9.83236 8.61113 9.07878 9.02129 8.56445C9.4347 8.05013 10.0288 7.79297 10.8035 7.79297C11.5783 7.79297 12.1707 8.0485 12.5809 8.55957C12.991 9.06738 13.201 9.79818 13.2107 10.752V12.0605ZM11.7996 10.625C11.7996 10.0358 11.7182 9.60775 11.5555 9.34082C11.396 9.07064 11.1453 8.93555 10.8035 8.93555C10.4715 8.93555 10.2257 9.06413 10.0662 9.32129C9.90996 9.5752 9.82695 9.97396 9.81719 10.5176V12.2461C9.81719 12.8255 9.89531 13.2568 10.0516 13.54C10.2111 13.82 10.465 13.96 10.8133 13.96C11.1583 13.96 11.4074 13.8249 11.5604 13.5547C11.7133 13.2845 11.7931 12.8711 11.7996 12.3145V10.625Z" fill="#252525"/>
<path d="M16 21V18L13 21H16Z" fill="#252525"/>
</svg>
