<svg width="18" height="24" viewBox="0 0 18 24" fill="none" xmlns="http://www.w3.org/2000/svg">
<path d="M4.61523 14.3066C4.61523 14.082 4.6901 13.8997 4.83984 13.7598C4.99284 13.6198 5.18327 13.5498 5.41113 13.5498C5.64225 13.5498 5.83268 13.6198 5.98242 13.7598C6.13542 13.8997 6.21191 14.082 6.21191 14.3066C6.21191 14.528 6.13704 14.7087 5.9873 14.8486C5.83757 14.9854 5.64551 15.0537 5.41113 15.0537C5.18001 15.0537 4.98958 14.9854 4.83984 14.8486C4.6901 14.7087 4.61523 14.528 4.61523 14.3066ZM12.2666 15H7.39355V14.0332L9.69336 11.582C10.0091 11.237 10.2419 10.9359 10.3916 10.6787C10.5446 10.4215 10.6211 10.1774 10.6211 9.94629C10.6211 9.63053 10.5413 9.38314 10.3818 9.2041C10.2223 9.02181 9.99447 8.93066 9.69824 8.93066C9.37923 8.93066 9.12695 9.04134 8.94141 9.2627C8.75911 9.48079 8.66797 9.76888 8.66797 10.127H7.25195C7.25195 9.69401 7.35449 9.2985 7.55957 8.94043C7.7679 8.58236 8.06087 8.30241 8.43848 8.10059C8.81608 7.89551 9.24414 7.79297 9.72266 7.79297C10.4551 7.79297 11.0231 7.96875 11.4268 8.32031C11.8337 8.67188 12.0371 9.16829 12.0371 9.80957C12.0371 10.1611 11.946 10.5192 11.7637 10.8838C11.5814 11.2484 11.2689 11.6732 10.8262 12.1582L9.20996 13.8623H12.2666V15Z" fill="#252525"/>
</svg>
