<svg width="18" height="24" viewBox="0 0 18 24" fill="none" xmlns="http://www.w3.org/2000/svg">
<path d="M4.61523 14.3066C4.61523 14.082 4.6901 13.8997 4.83984 13.7598C4.99284 13.6198 5.18327 13.5498 5.41113 13.5498C5.64225 13.5498 5.83268 13.6198 5.98242 13.7598C6.13542 13.8997 6.21191 14.082 6.21191 14.3066C6.21191 14.528 6.13704 14.7087 5.9873 14.8486C5.83757 14.9854 5.64551 15.0537 5.41113 15.0537C5.18001 15.0537 4.98958 14.9854 4.83984 14.8486C4.6901 14.7087 4.61523 14.528 4.61523 14.3066ZM7.60352 11.5039L8.01367 7.89062H11.998V9.06738H9.1709L8.99512 10.5957C9.3304 10.4167 9.68685 10.3271 10.0645 10.3271C10.7415 10.3271 11.2721 10.5371 11.6562 10.957C12.0404 11.377 12.2324 11.9645 12.2324 12.7197C12.2324 13.1787 12.1348 13.5905 11.9395 13.9551C11.7474 14.3164 11.4707 14.598 11.1094 14.7998C10.748 14.9984 10.3216 15.0977 9.83008 15.0977C9.40039 15.0977 9.00163 15.0114 8.63379 14.8389C8.26595 14.6631 7.97461 14.4173 7.75977 14.1016C7.54818 13.7858 7.43587 13.4261 7.42285 13.0225H8.81934C8.84863 13.3187 8.95117 13.5498 9.12695 13.7158C9.30599 13.8786 9.53874 13.96 9.8252 13.96C10.1442 13.96 10.39 13.846 10.5625 13.6182C10.735 13.387 10.8213 13.0615 10.8213 12.6416C10.8213 12.238 10.722 11.9287 10.5234 11.7139C10.3249 11.499 10.0433 11.3916 9.67871 11.3916C9.34342 11.3916 9.07161 11.4795 8.86328 11.6553L8.72656 11.7822L7.60352 11.5039Z" fill="#252525"/>
</svg>
