<svg width="18" height="24" viewBox="0 0 18 24" fill="none" xmlns="http://www.w3.org/2000/svg">
<rect width="18" height="24" fill="#D1D1D1"/>
<path d="M4.5 14.5V14.8249L4.79693 14.9569L9.29693 16.9569L9.5 17.0472L9.70307 16.9569L14.2031 14.9569L14.5 14.8249V14.5V9V8.67506L14.2031 8.54309L9.70307 6.54309L9.5 6.45284L9.29693 6.54309L4.79693 8.54309L4.5 8.67506V9V14.5Z" stroke="#B8B8B8"/>
<path d="M14 9L9.5 11V16.5L14 14.5V9Z" fill="#B8B8B8"/>
<path d="M14 9L9.5 11V16.5L14 14.5V9Z" fill="url(#paint0_linear)"/>
<path d="M9.5 11V16.5L5 14.5V9L9.5 11Z" fill="#D1D1D1"/>
<path d="M9.5 11V16.5L5 14.5V9L9.5 11Z" fill="url(#paint1_linear)"/>
<path d="M9.5 11L5 9L9.5 7L14 9L9.5 11Z" fill="#E8E8E8"/>
<defs>
<linearGradient id="paint0_linear" x1="11.75" y1="9" x2="11.75" y2="16.5" gradientUnits="userSpaceOnUse">
<stop stop-color="white"/>
<stop offset="1" stop-color="white" stop-opacity="0"/>
</linearGradient>
<linearGradient id="paint1_linear" x1="7.25" y1="9" x2="7.25" y2="16.5" gradientUnits="userSpaceOnUse">
<stop stop-color="white"/>
<stop offset="1" stop-color="white" stop-opacity="0"/>
</linearGradient>
</defs>
</svg>
