<?xml version="1.0" encoding="utf-8"?>
<!-- Generator: Adobe Illustrator 25.2.0, SVG Export Plug-In . SVG Version: 6.00 Build 0)  -->
<svg version="1.1" id="Layer_1" xmlns="http://www.w3.org/2000/svg" xmlns:xlink="http://www.w3.org/1999/xlink" x="0px" y="0px"
	 viewBox="0 0 24 24" style="enable-background:new 0 0 24 24;" xml:space="preserve">
<style type="text/css">
	.st0{display:none;fill:#D1D1D1;}
	.st1{fill:#252525;}
</style>
<rect class="st0" width="24" height="24"/>
<path class="st1" d="M13,11c-0.3,0-0.5,0.2-0.5,0.5S12.7,12,13,12V11z M19.9,11.9c0.2-0.2,0.2-0.5,0-0.7L16.7,8
	c-0.2-0.2-0.5-0.2-0.7,0c-0.2,0.2-0.2,0.5,0,0.7l2.8,2.8L16,14.3c-0.2,0.2-0.2,0.5,0,0.7c0.2,0.2,0.5,0.2,0.7,0L19.9,11.9z M13,12
	h6.5v-1H13V12z"/>
<path class="st1" d="M12.5,16H9c-0.5,0-1-0.2-1.2-0.7l-0.5-0.8C7.1,14.3,7,14,7,13.7V8.5C7,7.7,7.7,7,8.5,7h4C13.3,7,14,7.7,14,8.5
	V9c0,0.3-0.2,0.5-0.5,0.5S13,9.3,13,9V8.5C13,8.2,12.8,8,12.5,8h-4C8.2,8,8,8.2,8,8.5V12h0.5c0.8,0,1.5,0.7,1.5,1.5V15h2.5
	c0.3,0,0.5-0.2,0.5-0.5V14c0-0.3,0.2-0.5,0.5-0.5S14,13.7,14,14v0.5C14,15.3,13.3,16,12.5,16z M8,13v0.7c0,0.1,0,0.2,0.1,0.3
	l0.5,0.8C8.7,14.9,8.8,15,9,15v-1.5C9,13.2,8.8,13,8.5,13H8z"/>
</svg>
