<?xml version="1.0" encoding="utf-8"?>
<!-- Generator: Adobe Illustrator 25.2.0, SVG Export Plug-In . SVG Version: 6.00 Build 0)  -->
<svg version="1.1" id="Layer_1" xmlns="http://www.w3.org/2000/svg" xmlns:xlink="http://www.w3.org/1999/xlink" x="0px" y="0px"
	 viewBox="0 0 32 24" style="enable-background:new 0 0 32 24;" xml:space="preserve">
<style type="text/css">
	.st0{display:none;fill:#D1D1D1;}
	.st1{fill:#808080;}
	.st2{fill:#B8B8B8;}
	.st3{fill-rule:evenodd;clip-rule:evenodd;fill:#252525;}
	.st4{fill:none;stroke:#252525;}
	.st5{fill:#252525;}
</style>
<rect class="st0" width="32" height="24"/>
<path class="st1" d="M14,5.5c-2,0.5-3,1.9-3,4C19,11,18.5,4.4,14,5.5z"/>
<path class="st2" d="M16.1,18l2.8-2.8l-1.1-1.8l-1.4-2.8l-6-1.1l1.1,6l2.8,1.4L16.1,18z"/>
<path class="st3" d="M10.1,9.1C10.2,9,10.4,9,10.6,9l6,1.1c0.2,0,0.3,0.1,0.4,0.3l1.4,2.8l1.3,2.1l-3.4,3.4l-2.1-1.3l-2.8-1.4
	c-0.1-0.1-0.2-0.2-0.3-0.4l-1.1-6C10,9.4,10,9.2,10.1,9.1z M11.1,10.1l0.9,5.1l2.6,1.3l1.4,0.9l2.3-2.3l-0.9-1.4L16.2,11L11.1,10.1z
	"/>
<path class="st4" d="M17.2,16.2L14,13"/>
<circle class="st4" cx="14" cy="13" r="0.5"/>
<path class="st5" d="M15.8,18.3l3.5-3.5c0.4-0.4,1-0.4,1.4,0l0,0c0.4,0.4,0.4,1,0,1.4l-3.5,3.5c-0.4,0.4-1,0.4-1.4,0l0,0
	C15.4,19.3,15.4,18.7,15.8,18.3z"/>
<path class="st3" d="M13.9,6c-1.4,0.4-2.5,1.5-3,3.6l-1-0.2c0.5-2.4,1.9-3.8,3.7-4.3c1.7-0.5,3.7-0.1,5.6,1l-0.5,0.9
	C17.1,6,15.3,5.7,13.9,6z"/>
<circle class="st4" cx="20" cy="7" r="1"/>
</svg>
