<?xml version="1.0" encoding="utf-8"?>
<!-- Generator: Adobe Illustrator 25.2.0, SVG Export Plug-In . SVG Version: 6.00 Build 0)  -->
<svg version="1.1" id="Layer_1" xmlns="http://www.w3.org/2000/svg" xmlns:xlink="http://www.w3.org/1999/xlink" x="0px" y="0px"
	 viewBox="0 0 32 24" style="enable-background:new 0 0 32 24;" xml:space="preserve">
<style type="text/css">
	.st0{display:none;fill:#D1D1D1;}
	.st1{fill-rule:evenodd;clip-rule:evenodd;fill:#252525;}
</style>
<rect class="st0" width="32" height="24"/>
<path class="st1" d="M19.7,9.3c-1.6-1-3.9-2-6.5-1.8c-1.6,0.1-2.8,1.1-3.3,2.3c-0.4,0.8-0.4,1.6-0.2,2.2c0,0,0-0.1,0-0.1
	c0.1-0.4,0.1-0.9,0.3-1.3c0.2-0.4,0.4-0.8,0.8-1.1c0.2-0.2,0.5-0.1,0.7,0.1c0.2,0.2,0.1,0.5-0.1,0.7c-0.2,0.1-0.3,0.3-0.5,0.7
	c-0.1,0.3-0.2,0.7-0.3,1c0,0.2,0,0.5-0.1,0.7l0.5-0.2c0-0.4,0.1-0.9,0.3-1.3c0.2-0.3,0.4-0.7,0.8-0.9c0.4-0.2,0.8-0.4,1.4-0.4
	c1,0,1.6,0.4,2,1c0.4,0.5,0.5,1.1,0.5,1.5c0,0.4,0,1-0.4,1.5c-0.4,0.6-1.1,0.9-2.1,0.9c-0.6,0-1.2-0.2-1.7-0.5
	c-0.3-0.2-0.6-0.5-0.7-0.9l-0.6,0.2c0,0.1,0,0.2,0,0.3c0,0,0,0,0,0c0,0.2,0,0.3,0,0.5c0,0.2,0.1,0.5,0.5,1.1
	c0.4,0.5,1.1,0.8,2.1,0.8c1,0,2.1-0.2,2.8-0.5c1.1-0.4,1.7-0.8,2.3-1.4c0.1-0.1,0.3-0.2,0.5-0.1l1.5,0.5c0.3,0.1,0.4,0.4,0.3,0.6
	C20.5,16,20.2,16.1,20,16l-1.2-0.4c-0.6,0.6-1.3,1-2.5,1.4c-0.8,0.3-2,0.5-3.1,0.5c-1.1,0-2.3-0.3-3-1.2c-0.4-0.6-0.6-1.1-0.6-1.6
	c0-0.2,0-0.4,0-0.6c0,0,0,0,0,0c0-0.1,0-0.2,0-0.3c-1.3-1.2-1.4-2.9-0.7-4.3c0.7-1.5,2.2-2.7,4.2-2.9c2.9-0.3,5.4,0.8,7.1,1.9
	c0.9,0.6,1.6,1.1,2,1.6c0.2,0.2,0.4,0.4,0.6,0.5c0.1,0.1,0.1,0.1,0.1,0.2c0,0,0,0,0,0l0,0l0,0l0,0c0.2,0.2,0.2,0.5,0,0.7
	c-0.2,0.2-0.5,0.2-0.7,0l0,0l0,0c0,0,0,0,0,0c0,0-0.1-0.1-0.1-0.1c-0.1-0.1-0.3-0.3-0.5-0.5C21.1,10.3,20.5,9.8,19.7,9.3z
	 M12.3,11.8c-0.2,0.4-0.2,0.9-0.2,1.3c0,0.3,0.1,0.5,0.4,0.7c0.3,0.2,0.7,0.3,1.1,0.3c0.8,0,1.1-0.3,1.3-0.5
	c0.2-0.3,0.2-0.6,0.2-0.9c0-0.3-0.1-0.6-0.3-1c-0.2-0.3-0.6-0.5-1.2-0.5c-0.4,0-0.7,0.1-0.9,0.2C12.5,11.4,12.4,11.6,12.3,11.8z"/>
</svg>
