<?xml version="1.0" encoding="utf-8"?>
<!-- Generator: Adobe Illustrator 25.2.0, SVG Export Plug-In . SVG Version: 6.00 Build 0)  -->
<svg version="1.1" id="Layer_1" xmlns="http://www.w3.org/2000/svg" xmlns:xlink="http://www.w3.org/1999/xlink" x="0px" y="0px"
	 viewBox="0 0 32 24" style="enable-background:new 0 0 32 24;" xml:space="preserve">
<style type="text/css">
	.st0{display:none;fill:#D1D1D1;}
	.st1{fill:#B8B8B8;}
	.st2{fill:none;stroke:#252525;}
	.st3{fill:#252525;}
</style>
<rect class="st0" width="32" height="24"/>
<path class="st1" d="M16.1,18l2.8-2.8l-1.1-1.8l-1.4-2.8l-6-1.1l1.1,6l2.8,1.4L16.1,18z"/>
<path class="st2" d="M17.2,16.2L14,13"/>
<circle class="st2" cx="14" cy="13" r="0.5"/>
<path class="st3" d="M20.7,14.8c-0.4-0.4-1-0.4-1.4,0l-1-1.6l-1.4-2.8c-0.1-0.1-0.2-0.2-0.4-0.3l-5.4-1c0.4-1.4,1.2-2.4,2.3-2.9
	c1.5-0.7,3.4-0.4,5.3,0.7l0.5-0.9c-2.2-1.3-4.5-1.5-6.2-0.7c-1.5,0.7-2.5,2-3,3.9C10,9.3,10,9.4,10,9.6l1.1,6c0,0.2,0.1,0.3,0.3,0.4
	l2.8,1.4l1.6,1c-0.4,0.4-0.4,1,0,1.4c0.4,0.4,1,0.4,1.4,0l3.5-3.5C21.1,15.8,21.1,15.2,20.7,14.8z M16.1,17.3l-1.4-0.9l0,0l0,0
	L12,15.2l-0.9-5.1l5.1,0.9l1.3,2.6l0,0l0,0l0.9,1.4L16.1,17.3z"/>
<circle class="st2" cx="20" cy="7" r="1"/>
</svg>
