<?xml version="1.0" encoding="utf-8"?>
<!-- Generator: Adobe Illustrator 25.2.0, SVG Export Plug-In . SVG Version: 6.00 Build 0)  -->
<svg version="1.1" id="Layer_1" xmlns="http://www.w3.org/2000/svg" xmlns:xlink="http://www.w3.org/1999/xlink" x="0px" y="0px"
	 viewBox="0 0 32 24" style="enable-background:new 0 0 32 24;" xml:space="preserve">
<style type="text/css">
	.st0{display:none;fill:#D1D1D1;}
	.st1{fill-rule:evenodd;clip-rule:evenodd;fill:#252525;}
	.st2{fill:#252525;}
</style>
<rect class="st0" width="32" height="24"/>
<path class="st1" d="M14.7,13.4c1.4,1.4,3.6,1.4,4.9,0c1.4-1.4,1.4-3.6,0-4.9c-1.4-1.4-3.6-1.4-4.9,0C13.4,9.8,13.4,12.1,14.7,13.4z
	 M14.7,13.4c0.2,0.2,0.2,0.5,0,0.7l-3.5,3.5c-0.2,0.2-0.5,0.2-0.7,0c-0.2-0.2-0.2-0.5,0-0.7l3.5-3.5C14.2,13.2,14.5,13.2,14.7,13.4z
	"/>
<path class="st2" d="M19.3,13.1c-1.2,1.2-3.1,1.2-4.2,0l-0.7,0.7c1.6,1.6,4.1,1.6,5.7,0L19.3,13.1z M19.3,8.8c1.2,1.2,1.2,3.1,0,4.2
	l0.7,0.7c1.6-1.6,1.6-4.1,0-5.7L19.3,8.8z M15.1,8.8c1.2-1.2,3.1-1.2,4.2,0L20,8.1c-1.6-1.6-4.1-1.6-5.7,0L15.1,8.8z M15.1,13.1
	c-1.2-1.2-1.2-3.1,0-4.2l-0.7-0.7c-1.6,1.6-1.6,4.1,0,5.7L15.1,13.1z M15.1,14.5c0.4-0.4,0.4-1,0-1.4l-0.7,0.7L15.1,14.5z M11.5,18
	l3.5-3.5l-0.7-0.7l-3.5,3.5L11.5,18z M10.1,18c0.4,0.4,1,0.4,1.4,0l-0.7-0.7L10.1,18z M10.1,16.6c-0.4,0.4-0.4,1,0,1.4l0.7-0.7
	L10.1,16.6z M13.7,13.1l-3.5,3.5l0.7,0.7l3.5-3.5L13.7,13.1z M15.1,13.1c-0.4-0.4-1-0.4-1.4,0l0.7,0.7L15.1,13.1z"/>
</svg>
