<?xml version="1.0" encoding="utf-8"?>
<!-- Generator: Adobe Illustrator 25.2.0, SVG Export Plug-In . SVG Version: 6.00 Build 0)  -->
<svg version="1.1" id="Layer_1" xmlns="http://www.w3.org/2000/svg" xmlns:xlink="http://www.w3.org/1999/xlink" x="0px" y="0px"
	 viewBox="0 0 32 24" style="enable-background:new 0 0 32 24;" xml:space="preserve">
<style type="text/css">
	.st0{display:none;fill:#D1D1D1;}
	.st1{fill:#B8B8B8;stroke:#252525;}
	.st2{fill:#252525;}
</style>
<rect class="st0" width="32" height="24"/>
<path class="st1" d="M11,13.4L17.4,7c0.6-0.6,1.5-0.6,2.1,0l2.8,2.8c0.6,0.6,0.6,1.5,0,2.1L16,18.3c-0.6,0.6-1.5,0.6-2.1,0L11,15.5
	C10.4,14.9,10.4,14,11,13.4z"/>
<rect x="14" y="11.8" transform="matrix(0.7071 -0.7071 0.7071 0.7071 -6.1967 14.617)" class="st2" width="1" height="6"/>
<rect x="18.3" y="7.5" transform="matrix(0.7071 -0.7071 0.7071 0.7071 -1.9541 16.3744)" class="st2" width="1" height="6"/>
<rect x="13.7" y="12.5" transform="matrix(0.7071 -0.7071 0.7071 0.7071 -5.0502 13.8493)" class="st2" width="1" height="1"/>
<rect x="9.4" y="12.9" transform="matrix(0.7071 -0.7071 0.7071 0.7071 -7.2929 11.2634)" class="st2" width="1" height="3"/>
<rect x="8.7" y="9" transform="matrix(0.7071 -0.7071 0.7071 0.7071 -4 9.3137)" class="st2" width="1" height="1"/>
<rect x="10.2" y="7.6" transform="matrix(0.7071 -0.7071 0.7071 0.7071 -2.5858 9.8995)" class="st2" width="1" height="1"/>
<rect x="12.3" y="6.9" transform="matrix(0.7071 -0.7071 0.7071 0.7071 -1.4645 11.1923)" class="st2" width="1" height="1"/>
<rect x="14.4" y="7.6" transform="matrix(0.7071 -0.7071 0.7071 0.7071 -1.3432 12.8995)" class="st2" width="1" height="1"/>
<rect x="8" y="11.1" transform="matrix(0.7071 -0.7071 0.7071 0.7071 -5.7071 9.435)" class="st2" width="1" height="1"/>
<rect x="15.1" y="13.9" transform="matrix(0.7071 -0.7071 0.7071 0.7071 -5.636 15.2635)" class="st2" width="1" height="1"/>
<rect x="15.1" y="11.1" transform="matrix(0.7071 -0.7071 0.7071 0.7071 -3.636 14.435)" class="st2" width="1" height="1"/>
<rect x="16.5" y="12.5" transform="matrix(0.7071 -0.7071 0.7071 0.7071 -4.2218 15.8492)" class="st2" width="1" height="1"/>
<rect x="16.5" y="9.7" transform="matrix(0.7071 -0.7071 0.7071 0.7071 -2.2218 15.0208)" class="st2" width="1" height="1"/>
<rect x="17.9" y="11.1" transform="matrix(0.7071 -0.7071 0.7071 0.7071 -2.8076 16.435)" class="st2" width="1" height="1"/>
</svg>
