<svg width="30" height="30" viewBox="0 0 30 30" fill="none" xmlns="http://www.w3.org/2000/svg">
<path d="M18.5 15.5C18.7761 15.5 19 15.2761 19 15C19 14.7239 18.7761 14.5 18.5 14.5V15.5ZM10.6464 14.6464C10.4512 14.8417 10.4512 15.1583 10.6464 15.3536L13.8284 18.5355C14.0237 18.7308 14.3403 18.7308 14.5355 18.5355C14.7308 18.3403 14.7308 18.0237 14.5355 17.8284L11.7071 15L14.5355 12.1716C14.7308 11.9763 14.7308 11.6597 14.5355 11.4645C14.3403 11.2692 14.0237 11.2692 13.8284 11.4645L10.6464 14.6464ZM18.5 14.5H11V15.5H18.5V14.5Z" fill="#252525"/>
</svg>
