<?xml version="1.0" encoding="utf-8"?>
<!-- Generator: Adobe Illustrator 25.2.0, SVG Export Plug-In . SVG Version: 6.00 Build 0)  -->
<svg version="1.1" id="Layer_1" xmlns="http://www.w3.org/2000/svg" xmlns:xlink="http://www.w3.org/1999/xlink" x="0px" y="0px"
	 viewBox="0 0 18 24" style="enable-background:new 0 0 18 24;" xml:space="preserve">
<style type="text/css">
	.st0{display:none;fill:#D1D1D1;}
	.st1{fill-rule:evenodd;clip-rule:evenodd;fill:#252525;}
	.st2{fill:#252525;}
	.st3{fill:none;stroke:#252525;stroke-width:0.5;}
</style>
<rect class="st0" width="18" height="24"/>
<path class="st1" d="M11.2,11.6L7.7,8.1l-2.8,2.8c-0.4,0.4-0.4,1,0,1.4l2.1,2.1c0.4,0.4,1,0.4,1.4,0L11.2,11.6z M7.7,6.7l-3.5,3.5
	c-0.8,0.8-0.8,2,0,2.8l2.1,2.1c0.8,0.8,2,0.8,2.8,0l3.5-3.5L7.7,6.7z"/>
<path class="st2" d="M11.2,11.6L11,13.8c-0.1,0.9,0.6,1.7,1.5,1.7c1,0,1.7-0.9,1.5-1.8l0-0.1c-0.4-2-2-3.6-4-3.9L9.1,9.5L11.2,11.6z
	"/>
<rect x="6.7" y="7.2" transform="matrix(0.7071 -0.7071 0.7071 0.7071 -4.6679 7.6909)" class="st3" width="0.5" height="4.5"/>
</svg>
