<?xml version="1.0" encoding="utf-8"?>
<!-- Generator: Adobe Illustrator 25.2.0, SVG Export Plug-In . SVG Version: 6.00 Build 0)  -->
<svg version="1.1" id="Layer_1" xmlns="http://www.w3.org/2000/svg" xmlns:xlink="http://www.w3.org/1999/xlink" x="0px" y="0px"
	 viewBox="0 0 18 24" style="enable-background:new 0 0 18 24;" xml:space="preserve">
<style type="text/css">
	.st0{display:none;fill:#D1D1D1;}
	.st1{fill-rule:evenodd;clip-rule:evenodd;fill:#252525;}
	.st2{fill:#252525;}
</style>
<rect class="st0" width="18" height="24"/>
<path class="st1" d="M13,8H6v7h7V8z M5,7v9h9V7H5z"/>
<path class="st2" d="M10,9v0.8H9.9c-0.4,0-0.8,0.1-1.1,0.3c-0.3,0.2-0.4,0.5-0.5,0.9c0.3-0.3,0.6-0.4,1-0.4c0.4,0,0.8,0.2,1,0.5
	c0.3,0.3,0.4,0.7,0.4,1.2c0,0.3-0.1,0.6-0.2,0.9c-0.1,0.3-0.3,0.5-0.6,0.6c-0.3,0.1-0.5,0.2-0.9,0.2c-0.5,0-0.9-0.2-1.3-0.5
	c-0.3-0.4-0.5-0.9-0.5-1.5v-0.4c0-0.5,0.1-1,0.3-1.4c0.2-0.4,0.5-0.7,0.9-1C8.9,9.1,9.4,9,9.9,9H10z M9.1,11.5c-0.2,0-0.3,0-0.4,0.1
	c-0.1,0.1-0.2,0.2-0.3,0.3v0.3c0,0.3,0.1,0.6,0.2,0.8c0.1,0.2,0.3,0.3,0.5,0.3c0.2,0,0.4-0.1,0.5-0.2c0.1-0.2,0.2-0.4,0.2-0.7
	c0-0.3-0.1-0.5-0.2-0.7C9.5,11.5,9.3,11.5,9.1,11.5z"/>
</svg>
