<?xml version="1.0" encoding="utf-8"?>
<!-- Generator: Adobe Illustrator 25.2.0, SVG Export Plug-In . SVG Version: 6.00 Build 0)  -->
<svg version="1.1" id="Layer_1" xmlns="http://www.w3.org/2000/svg" xmlns:xlink="http://www.w3.org/1999/xlink" x="0px" y="0px"
	 viewBox="0 0 18 24" style="enable-background:new 0 0 18 24;" xml:space="preserve">
<style type="text/css">
	.st0{display:none;fill:#D1D1D1;}
	.st1{fill-rule:evenodd;clip-rule:evenodd;fill:#252525;}
	.st2{fill:#252525;}
</style>
<rect class="st0" width="18" height="24"/>
<path class="st1" d="M13,8H6v7h7V8z M5,7v9h9V7H5z"/>
<path class="st2" d="M10.7,14H7.3v-0.7l1.6-1.7c0.2-0.2,0.4-0.5,0.5-0.6c0.1-0.2,0.2-0.4,0.2-0.5c0-0.2-0.1-0.4-0.2-0.5
	C9.3,9.8,9.2,9.8,9,9.8c-0.2,0-0.4,0.1-0.5,0.2c-0.1,0.2-0.2,0.4-0.2,0.6h-1c0-0.3,0.1-0.6,0.2-0.8c0.1-0.3,0.4-0.4,0.6-0.6
	C8.3,9,8.6,9,9,9c0.5,0,0.9,0.1,1.2,0.4c0.3,0.2,0.4,0.6,0.4,1c0,0.2-0.1,0.5-0.2,0.8c-0.1,0.3-0.3,0.6-0.7,0.9l-1.1,1.2h2.1V14z"/>
</svg>
