<?xml version="1.0" encoding="utf-8"?>
<!-- Generator: Adobe Illustrator 25.2.0, SVG Export Plug-In . SVG Version: 6.00 Build 0)  -->
<svg version="1.1" id="Layer_1" xmlns="http://www.w3.org/2000/svg" xmlns:xlink="http://www.w3.org/1999/xlink" x="0px" y="0px"
	 viewBox="0 0 18 24" style="enable-background:new 0 0 18 24;" xml:space="preserve">
<style type="text/css">
	.st0{fill:#D1D1D1;}
	.st1{fill:#252525;}
</style>
<path class="st0" d="M9.5,7.5L9.5,7.5c2.2,0,4,1.8,4,4l0,0c0,2.2-1.8,4-4,4l0,0c-2.2,0-4-1.8-4-4l0,0C5.5,9.3,7.3,7.5,9.5,7.5z"/>
<path class="st1" d="M9.5,7C7,7,5,9,5,11.5S7,16,9.5,16s4.5-2,4.5-4.5S12,7,9.5,7z M12.7,10.1c-0.3,0.8-0.8,1.8-1.7,2.4
	c-1.5,1-3.1,1.4-4,1.5c-0.2-0.2-0.3-0.4-0.5-0.6c0-1,0-2.7,2-3.8c1.1-0.7,2.4-0.7,3.3-0.6C12.2,9.2,12.5,9.6,12.7,10.1z"/>
</svg>
