<?xml version="1.0" encoding="utf-8"?>
<!-- Generator: Adobe Illustrator 25.2.0, SVG Export Plug-In . SVG Version: 6.00 Build 0)  -->
<svg version="1.1" id="Layer_1" xmlns="http://www.w3.org/2000/svg" xmlns:xlink="http://www.w3.org/1999/xlink" x="0px" y="0px"
	 viewBox="0 0 18 24" style="enable-background:new 0 0 18 24;" xml:space="preserve">
<style type="text/css">
	.st0{fill:#D1D1D1;}
	.st1{fill:#252525;}
</style>
<path class="st0" d="M8.5,7.5L8.5,7.5c2.2,0,4,1.8,4,4l0,0c0,2.2-1.8,4-4,4l0,0c-2.2,0-4-1.8-4-4l0,0C4.5,9.3,6.3,7.5,8.5,7.5z"/>
<path class="st1" d="M8.5,7C6,7,4,9,4,11.5S6,16,8.5,16s4.5-2,4.5-4.5S11,7,8.5,7z M8.5,15c-1,0-1.8-0.4-2.5-1c1,0,2.4-0.2,3.5-1
	c1.6-1.2,1.8-2.5,1.9-3.4c0.4,0.5,0.6,1.2,0.6,1.9C12,13.4,10.4,15,8.5,15z"/>
</svg>
