<?xml version="1.0" encoding="utf-8"?>
<!-- Generator: Adobe Illustrator 25.2.0, SVG Export Plug-In . SVG Version: 6.00 Build 0)  -->
<svg version="1.1" id="Layer_1" xmlns="http://www.w3.org/2000/svg" xmlns:xlink="http://www.w3.org/1999/xlink" x="0px" y="0px"
	 viewBox="0 0 18 24" style="enable-background:new 0 0 18 24;" xml:space="preserve">
<style type="text/css">
	.st0{display:none;fill:#D1D1D1;}
	.st1{fill:#252525;}
</style>
<rect class="st0" width="18" height="24"/>
<path class="st1" d="M8.5,8L8.5,8C8.8,8,9,8.2,9,8.5v6C9,14.8,8.8,15,8.5,15l0,0C8.2,15,8,14.8,8,14.5v-6C8,8.2,8.2,8,8.5,8z"/>
<path class="st1" d="M5.5,11h6c0.3,0,0.5,0.2,0.5,0.5l0,0c0,0.3-0.2,0.5-0.5,0.5h-6C5.2,12,5,11.8,5,11.5l0,0C5,11.2,5.2,11,5.5,11z
	"/>
</svg>
