<?xml version="1.0" encoding="utf-8"?>
<!-- Generator: Adobe Illustrator 25.2.0, SVG Export Plug-In . SVG Version: 6.00 Build 0)  -->
<svg version="1.1" id="Layer_1" xmlns="http://www.w3.org/2000/svg" xmlns:xlink="http://www.w3.org/1999/xlink" x="0px" y="0px"
	 viewBox="0 0 18 24" style="enable-background:new 0 0 18 24;" xml:space="preserve">
<style type="text/css">
	.st0{display:none;fill:#D1D1D1;}
	.st1{fill:none;stroke:#252525;stroke-linejoin:round;}
	.st2{fill-rule:evenodd;clip-rule:evenodd;fill:#252525;}
	.st3{fill:none;stroke:#252525;stroke-linecap:round;}
</style>
<rect class="st0" width="18" height="24"/>
<path class="st1" d="M4.6,11.8c-0.1,0.1-0.1,0.3,0,0.4c1.8,3.7,7.1,3.7,8.9,0c0.1-0.1,0.1-0.3,0-0.4C11.6,8.1,6.4,8.1,4.6,11.8z"/>
<path class="st2" d="M9,14c1.1,0,2-0.9,2-2h-0.5c-0.3,0-0.5-0.2-0.5-0.5s0.2-0.5,0.5-0.5h0.2c-0.3-0.6-1-1-1.7-1c-1.1,0-2,0.9-2,2
	S7.9,14,9,14z"/>
<line class="st3" x1="12.1" y1="7.7" x2="5.7" y2="15.9"/>
</svg>
