<svg width="18" height="24" viewBox="0 0 18 24" fill="none" xmlns="http://www.w3.org/2000/svg">
<rect width="18" height="24" fill="#D1D1D1"/>
<path d="M4.55279 11.7764C4.4824 11.9172 4.4824 12.0828 4.55279 12.2236C6.38514 15.8883 11.6149 15.8883 13.4472 12.2236C13.5176 12.0828 13.5176 11.9172 13.4472 11.7764C11.6149 8.11169 6.38514 8.11169 4.55279 11.7764Z" stroke="#252525" stroke-linejoin="round"/>
<path fill-rule="evenodd" clip-rule="evenodd" d="M9 14C10.1046 14 11 13.1046 11 12H10.5C10.2239 12 10 11.7761 10 11.5C10 11.2239 10.2239 11 10.5 11H10.7324C10.3866 10.4022 9.74028 10 9 10C7.89543 10 7 10.8954 7 12C7 13.1046 7.89543 14 9 14Z" fill="#252525"/>
<line x1="12.0877" y1="7.70165" x2="5.70165" y2="15.9123" stroke="#252525" stroke-linecap="round"/>
</svg>
