<svg width="18" height="24" viewBox="0 0 18 24" fill="none" xmlns="http://www.w3.org/2000/svg">
<rect width="8" height="1" rx="0.5" transform="matrix(1 0 0 -1 5 14)" fill="#252525"/>
<rect width="8" height="1" rx="0.5" transform="matrix(1 0 0 -1 5 16)" fill="#252525"/>
<path d="M8.5 7C8.5 6.72386 8.72386 6.5 9 6.5C9.27614 6.5 9.5 6.72386 9.5 7H8.5ZM9.35355 11.8536C9.15829 12.0488 8.84171 12.0488 8.64645 11.8536L5.46447 8.67157C5.2692 8.47631 5.2692 8.15973 5.46447 7.96447C5.65973 7.7692 5.97631 7.7692 6.17157 7.96447L9 10.7929L11.8284 7.96447C12.0237 7.7692 12.3403 7.7692 12.5355 7.96447C12.7308 8.15973 12.7308 8.47631 12.5355 8.67157L9.35355 11.8536ZM9.5 7V11.5H8.5V7H9.5Z" fill="#252525"/>
</svg>
