<svg width="18" height="24" viewBox="0 0 18 24" fill="none" xmlns="http://www.w3.org/2000/svg">
<rect width="8" height="1" rx="0.5" transform="matrix(1 0 0 -1 5 16)" fill="#252525"/>
<path d="M8.5 7.5C8.5 7.22386 8.72386 7 9 7C9.27614 7 9.5 7.22386 9.5 7.5H8.5ZM9.35355 12.8536C9.15829 13.0488 8.84171 13.0488 8.64645 12.8536L5.46447 9.67157C5.2692 9.47631 5.2692 9.15973 5.46447 8.96447C5.65973 8.7692 5.97631 8.7692 6.17157 8.96447L9 11.7929L11.8284 8.96447C12.0237 8.7692 12.3403 8.7692 12.5355 8.96447C12.7308 9.15973 12.7308 9.47631 12.5355 9.67157L9.35355 12.8536ZM9.5 7.5V12.5H8.5V7.5H9.5Z" fill="#252525"/>
</svg>
